<svg version="1.1" id="Layer_1" xmlns="http://www.w3.org/2000/svg" xmlns:xlink="http://www.w3.org/1999/xlink" x="0px" y="0px"
	 width="100%" viewBox="0 0 176 150" enable-background="new 0 0 176 150" xml:space="preserve">
<path fill="#000000" opacity="1.000000" stroke="none" 
	d="
M106.000000,151.000000 
	C70.666672,151.000000 35.833344,151.000000 1.000009,151.000000 
	C1.000006,101.000008 1.000006,51.000019 1.000003,1.000023 
	C59.666653,1.000015 118.333305,1.000015 176.999969,1.000008 
	C176.999969,50.999973 176.999969,100.999947 176.999985,150.999969 
	C153.500000,151.000000 130.000000,151.000000 106.000000,151.000000 
M17.015715,106.859512 
	C16.986904,109.193382 16.958094,111.527260 16.210669,114.264244 
	C15.504786,123.325829 17.031582,125.009148 26.271961,125.774223 
	C26.346176,127.172234 26.437664,128.569595 26.491333,129.968384 
	C26.645634,133.990097 26.784641,138.012405 27.134079,142.564606 
	C28.063969,142.656403 28.993858,142.748215 30.416376,142.977020 
	C30.583736,143.009293 30.751099,143.041550 30.999033,143.001236 
	C30.999033,143.001236 30.927439,143.082428 31.002361,143.540634 
	C31.002361,143.540634 31.078917,143.998581 31.237719,144.637970 
	C32.466999,144.910980 33.696278,145.184006 34.925556,145.457016 
	C34.903450,144.650787 34.881344,143.844574 34.952862,142.102524 
	C34.982243,136.727646 35.011620,131.352768 35.845688,125.714958 
	C36.762314,125.475067 37.678940,125.025642 38.595562,125.025665 
	C67.735390,125.026367 96.875214,125.070656 126.297913,125.879288 
	C126.647324,131.195160 126.996735,136.511032 127.386719,142.444290 
	C129.513199,142.444290 132.901154,142.444290 135.044189,142.444290 
	C135.044189,136.430710 135.044189,130.803329 135.971146,125.062988 
	C141.419144,125.047592 146.867157,125.023819 152.315155,125.019943 
	C155.579834,125.017616 157.661713,123.894676 157.801544,119.665573 
	C157.782364,111.775314 157.763184,103.885056 157.907562,95.245911 
	C157.906570,92.556450 157.903183,89.866982 157.904968,87.177521 
	C157.915710,71.019928 157.628021,54.853859 158.084900,38.708870 
	C158.270721,32.141903 156.429962,29.033117 149.937927,29.030350 
	C134.283234,29.023680 118.627991,29.089205 102.974693,28.941593 
	C101.360199,28.926369 99.757393,27.671110 98.756424,26.713711 
	C99.111572,25.470524 99.466713,24.227337 99.973099,22.206516 
	C98.526665,18.972322 97.080238,15.738128 95.339043,11.844843 
	C92.190498,14.978458 86.916626,14.394636 87.343460,20.189837 
	C86.952011,21.130770 86.560562,22.071703 85.775665,23.666639 
	C82.742577,23.640108 82.823799,25.702646 82.226212,28.226393 
	C80.324013,28.485592 78.422592,28.963188 76.519485,28.970028 
	C58.548973,29.034609 40.578121,28.999460 22.607512,29.047071 
	C19.850576,29.054375 16.901554,28.762741 16.932856,33.118725 
	C17.081087,53.746529 17.097397,74.375282 17.013729,95.906967 
	C17.064352,99.269379 17.114973,102.631798 17.015715,106.859512 
z"/>
<path fill="#D6E8EE" opacity="1.000000" stroke="none" 
	d="
M17.160713,95.003700 
	C17.097397,74.375282 17.081087,53.746529 16.932856,33.118725 
	C16.901554,28.762741 19.850576,29.054375 22.607512,29.047071 
	C40.578121,28.999460 58.548973,29.034609 76.519485,28.970028 
	C78.422592,28.963188 80.324013,28.485592 82.901505,28.149950 
	C84.410149,29.009434 85.243484,29.945358 85.968597,31.263435 
	C85.348663,32.929504 84.836960,34.213417 84.076317,36.121925 
	C75.729401,36.121925 67.358154,36.121925 58.535866,35.982742 
	C45.725441,35.843555 33.366058,35.843555 20.241064,35.843555 
	C20.241064,55.882954 20.241064,75.407860 19.856350,94.952133 
	C18.701328,94.982231 17.931021,94.992966 17.160713,95.003700 
z"/>
<path fill="#E3F7F8" opacity="1.000000" stroke="none" 
	d="
M98.149162,26.991241 
	C99.757393,27.671110 101.360199,28.926369 102.974693,28.941593 
	C118.627991,29.089205 134.283234,29.023680 149.937927,29.030350 
	C156.429962,29.033117 158.270721,32.141903 158.084900,38.708870 
	C157.628021,54.853859 157.915710,71.019928 157.904968,87.177521 
	C157.903183,89.866982 157.906570,92.556450 157.645432,95.739983 
	C157.184631,96.452339 157.049271,96.704605 156.651947,96.993431 
	C155.674881,96.989601 155.023117,96.983185 154.282257,96.517822 
	C154.075027,90.046829 153.956909,84.034767 153.931732,77.560349 
	C153.979095,65.736778 153.933533,54.375584 153.976929,42.555405 
	C154.065872,40.014534 154.065872,37.932644 154.065872,36.011147 
	C146.457352,36.011147 139.415237,36.011147 131.981781,35.817993 
	C125.074577,35.616661 118.558731,35.608486 111.878128,35.425507 
	C111.133484,35.412189 110.553596,35.573681 109.513046,35.661293 
	C103.808189,35.642883 98.564011,35.698349 93.214127,35.445694 
	C93.454140,34.164364 93.799866,33.191158 94.420380,32.041916 
	C94.745979,31.239937 94.796791,30.614000 94.916122,29.680464 
	C95.025375,28.954258 95.066101,28.535652 95.421280,27.970585 
	C96.540215,27.546495 97.344688,27.268867 98.149162,26.991241 
z"/>
<path fill="#BDD8E3" opacity="1.000000" stroke="none" 
	d="
M126.015038,125.108345 
	C96.875214,125.070656 67.735390,125.026367 38.595562,125.025665 
	C37.678940,125.025642 36.762314,125.475067 35.320786,125.530777 
	C34.559769,124.302971 34.323654,123.259354 34.366905,121.982956 
	C34.726364,120.793396 34.806458,119.836624 35.357681,118.908836 
	C40.221359,118.908920 44.613911,118.880013 49.465771,118.945938 
	C55.619865,118.951057 61.314651,118.861328 67.461517,118.900444 
	C74.277878,118.953186 80.642159,118.877075 87.461861,118.918243 
	C94.936165,118.994095 101.955040,118.952682 109.249954,118.958061 
	C109.706047,118.955704 109.886101,118.906540 110.454987,118.902878 
	C111.884460,118.906563 112.925079,118.864746 114.417984,118.889114 
	C118.170692,118.866119 121.471123,118.776917 125.063416,118.861862 
	C125.640266,119.373596 125.925255,119.711189 126.128326,120.464478 
	C126.035950,122.289558 126.025490,123.698952 126.015038,125.108345 
z"/>
<path fill="#24326D" opacity="1.000000" stroke="none" 
	d="
M126.156479,125.493820 
	C126.025490,123.698952 126.035950,122.289558 126.434715,120.491188 
	C127.893700,120.098778 128.964371,120.095345 130.427582,120.055603 
	C131.869705,120.047958 132.919266,120.076614 133.993866,120.499695 
	C134.360672,122.321404 134.702423,123.748665 135.044189,125.175934 
	C135.044189,130.803329 135.044189,136.430710 135.044189,142.444290 
	C132.901154,142.444290 129.513199,142.444290 127.386719,142.444290 
	C126.996735,136.511032 126.647324,131.195160 126.156479,125.493820 
z"/>
<path fill="#212F6B" opacity="1.000000" stroke="none" 
	d="
M34.087540,122.215729 
	C34.323654,123.259354 34.559769,124.302971 34.918442,125.662247 
	C35.011620,131.352768 34.982243,136.727646 34.608345,142.710999 
	C33.202190,143.545853 32.140553,143.772217 31.078917,143.998581 
	C31.078917,143.998581 31.002361,143.540634 31.115318,143.241669 
	C31.125002,142.986420 31.021729,143.030106 30.918457,143.073792 
	C30.751099,143.041550 30.583736,143.009293 29.944454,142.678574 
	C28.624907,142.264908 27.777283,142.149689 26.929659,142.034470 
	C26.784641,138.012405 26.645634,133.990097 26.491333,129.968384 
	C26.437664,128.569595 26.346176,127.172234 26.209396,125.119675 
	C26.780296,123.701729 27.413757,122.938347 28.376766,122.215347 
	C29.486353,122.367401 30.266394,122.479080 31.354023,122.567642 
	C32.470257,122.434921 33.278896,122.325325 34.087540,122.215729 
z"/>
<path fill="#B5CAD7" opacity="1.000000" stroke="none" 
	d="
M135.507660,125.119461 
	C134.702423,123.748665 134.360672,122.321404 134.236511,120.388748 
	C134.665939,119.610977 134.877747,119.338608 135.547195,119.062210 
	C140.662689,118.999001 145.320557,118.939819 150.246643,118.931580 
	C150.693802,118.948997 150.872696,118.915474 151.428162,118.948944 
	C152.635834,118.328102 153.466949,117.640266 154.634766,116.955292 
	C155.643463,116.992203 156.315475,117.026260 156.982712,117.446213 
	C157.005096,118.602829 157.032257,119.373550 157.059418,120.144272 
	C157.661713,123.894676 155.579834,125.017616 152.315155,125.019943 
	C146.867157,125.023819 141.419144,125.047592 135.507660,125.119461 
z"/>
<path fill="#B5C5D1" opacity="1.000000" stroke="none" 
	d="
M28.047222,122.174957 
	C27.413757,122.938347 26.780296,123.701729 26.067368,124.754486 
	C17.031582,125.009148 15.504786,123.325829 16.581047,114.432159 
	C18.127205,115.391136 19.302982,116.182213 20.599079,117.345581 
	C22.467186,117.750427 24.214977,117.782997 26.265270,118.021233 
	C27.060923,119.542923 27.554073,120.858940 28.047222,122.174957 
z"/>
<path fill="#FD900B" opacity="1.000000" stroke="none" 
	d="
M98.452789,26.852476 
	C97.344688,27.268867 96.540215,27.546495 95.255920,27.635988 
	C93.516022,26.633545 92.311485,25.710018 90.981316,25.033497 
	C89.434715,24.246897 87.778030,23.676735 86.169121,23.012638 
	C86.560562,22.071703 86.952011,21.130770 88.074753,20.078207 
	C91.736847,19.966578 94.667656,19.966578 97.790375,19.966578 
	C98.346970,20.793352 99.084419,21.888752 99.821861,22.984150 
	C99.466713,24.227337 99.111572,25.470524 98.452789,26.852476 
z"/>
<path fill="#FD6421" opacity="1.000000" stroke="none" 
	d="
M85.972397,23.339640 
	C87.778030,23.676735 89.434715,24.246897 90.981316,25.033497 
	C92.311485,25.710018 93.516022,26.633545 94.941467,27.782452 
	C95.066101,28.535652 95.025375,28.954258 94.565796,29.700483 
	C93.451263,30.103065 92.755577,30.178026 91.808441,30.187756 
	C91.387321,30.157215 91.217644,30.191910 90.730759,30.162512 
	C89.611069,30.674166 88.808594,31.249910 87.724548,31.831696 
	C86.987587,31.518919 86.532211,31.200102 86.076828,30.881283 
	C85.243484,29.945358 84.410149,29.009434 83.282761,27.947418 
	C82.823799,25.702646 82.742577,23.640108 85.972397,23.339640 
z"/>
<path fill="#FBA214" opacity="1.000000" stroke="none" 
	d="
M99.897476,22.595333 
	C99.084419,21.888752 98.346970,20.793352 97.790375,19.966578 
	C94.667656,19.966578 91.736847,19.966578 88.366440,19.952496 
	C86.916626,14.394636 92.190498,14.978458 95.339043,11.844843 
	C97.080238,15.738128 98.526665,18.972322 99.897476,22.595333 
z"/>
<path fill="#D7F0F5" opacity="1.000000" stroke="none" 
	d="
M17.087221,95.455338 
	C17.931021,94.992966 18.701328,94.982231 19.990335,95.330963 
	C20.499477,99.122047 20.489920,102.553673 20.148888,105.982376 
	C18.933475,105.984375 18.049534,105.989296 17.165594,105.994209 
	C17.114973,102.631798 17.064352,99.269379 17.087221,95.455338 
z"/>
<path fill="#CEE8F1" opacity="1.000000" stroke="none" 
	d="
M17.090654,106.426865 
	C18.049534,105.989296 18.933475,105.984375 20.190212,106.439102 
	C20.534925,110.256920 20.506844,113.615105 20.478760,116.973289 
	C19.302982,116.182213 18.127205,115.391136 16.940355,114.230598 
	C16.958094,111.527260 16.986904,109.193382 17.090654,106.426865 
z"/>
<path fill="#D7DDDF" opacity="1.000000" stroke="none" 
	d="
M157.430481,119.904922 
	C157.032257,119.373550 157.005096,118.602829 156.986542,116.970963 
	C156.989166,109.736824 156.983215,103.363831 156.977249,96.990845 
	C157.049271,96.704605 157.184631,96.452339 157.563660,96.114426 
	C157.763184,103.885056 157.782364,111.775314 157.430481,119.904922 
z"/>
<path fill="#24326C" opacity="1.000000" stroke="none" 
	d="
M31.158318,144.318268 
	C32.140553,143.772217 33.202190,143.545853 34.561531,143.178925 
	C34.881344,143.844574 34.903450,144.650787 34.925556,145.457016 
	C33.696278,145.184006 32.466999,144.910980 31.158318,144.318268 
z"/>
<path fill="#464F75" opacity="1.000000" stroke="none" 
	d="
M27.031868,142.299530 
	C27.777283,142.149689 28.624907,142.264908 29.698139,142.610077 
	C28.993858,142.748215 28.063969,142.656403 27.031868,142.299530 
z"/>
<path fill="#1D2B6A" opacity="1.000000" stroke="none" 
	d="
M20.599077,117.345581 
	C20.506844,113.615105 20.534925,110.256920 20.521685,106.442017 
	C20.489920,102.553673 20.499477,99.122047 20.375050,95.311600 
	C20.241064,75.407860 20.241064,55.882954 20.241064,35.843555 
	C33.366058,35.843555 45.725441,35.843555 58.529739,36.258667 
	C58.965099,37.041645 58.955540,37.409515 58.488213,37.862587 
	C46.792576,37.947792 35.554710,37.947792 24.010597,37.947792 
	C24.010597,55.898518 23.953224,72.876900 24.055544,89.854324 
	C24.077927,93.568321 24.669783,97.278885 25.003376,101.434151 
	C25.040386,103.941177 25.073397,106.005089 25.064491,108.492912 
	C25.335972,111.883072 25.649370,114.849312 25.962769,117.815552 
	C24.214977,117.782997 22.467186,117.750427 20.599077,117.345581 
z"/>
<path fill="#2D3A73" opacity="1.000000" stroke="none" 
	d="
M58.945980,37.777382 
	C58.955540,37.409515 58.965099,37.041645 58.980782,36.397850 
	C67.358154,36.121925 75.729401,36.121925 84.076317,36.121925 
	C84.836960,34.213417 85.348663,32.929504 85.968597,31.263435 
	C86.532211,31.200102 86.987587,31.518919 87.869797,32.069942 
	C89.213745,31.610302 90.130859,30.918451 91.047974,30.226603 
	C91.217644,30.191910 91.387321,30.157215 92.008240,30.400219 
	C93.021523,31.191261 93.583557,31.704607 94.145584,32.217957 
	C93.799866,33.191158 93.454140,34.164364 92.932556,35.675320 
	C92.520988,37.123371 92.285278,38.033669 91.749893,39.102814 
	C88.658516,41.236874 89.296165,43.473648 90.607285,45.833008 
	C89.180740,45.683159 88.099358,45.488407 86.776276,45.242188 
	C86.534576,45.190720 86.067169,45.030849 86.009018,44.685745 
	C85.634010,43.226784 85.317139,42.112919 85.278442,40.756649 
	C85.264313,39.735683 84.957726,38.272709 84.681786,38.278465 
	C77.417160,38.430080 70.155693,38.733601 62.676178,38.999897 
	C62.458668,38.988678 62.023079,38.985138 61.798794,38.982147 
	C61.574509,38.979160 61.126663,39.005318 60.940765,38.739037 
	C60.151905,38.240967 59.548943,38.009174 58.945980,37.777382 
z"/>
<path fill="#172356" opacity="1.000000" stroke="none" 
	d="
M112.042885,35.600311 
	C118.558731,35.608486 125.074577,35.616661 131.870148,36.326080 
	C132.095398,37.367886 132.040924,37.708450 131.723846,38.143463 
	C130.972427,38.511509 130.483643,38.785103 129.528870,39.042118 
	C124.067535,38.995777 119.072197,38.966022 113.776039,38.821678 
	C113.316719,42.421120 113.194870,46.137161 112.990715,49.848675 
	C112.715073,54.859962 112.376152,59.867775 112.024200,65.190338 
	C111.643944,66.003784 111.303856,66.503960 110.670532,66.707092 
	C110.262367,56.931171 110.147430,47.452297 110.015633,37.986706 
	C109.998772,37.999992 109.978142,38.037651 110.271667,37.887016 
	C111.057755,37.024361 111.550323,36.312336 112.042885,35.600311 
z"/>
<path fill="#10183C" opacity="1.000000" stroke="none" 
	d="
M154.298050,116.952438 
	C153.466949,117.640266 152.635834,118.328102 151.410172,118.488503 
	C150.990143,107.330345 150.964676,96.699623 150.960709,85.676056 
	C151.640015,83.208076 152.297821,81.132927 153.054932,78.847931 
	C153.328705,78.373207 153.556885,78.168083 153.838791,78.022713 
	C153.956909,84.034767 154.075027,90.046829 154.180420,96.977745 
	C154.211151,104.248550 154.254608,110.600487 154.298050,116.952438 
z"/>
<path fill="#141E47" opacity="1.000000" stroke="none" 
	d="
M153.931732,77.560349 
	C153.556885,78.168083 153.328705,78.373207 152.686325,78.833389 
	C151.478271,79.019310 150.738144,79.009918 149.997284,78.669327 
	C149.998001,77.896545 149.999435,77.454964 150.308319,76.726105 
	C150.742691,71.009148 150.768311,65.574661 151.025131,60.151131 
	C151.280518,54.758156 151.768219,49.376183 152.379166,43.882530 
	C153.032196,43.521912 153.460083,43.268147 153.887970,43.014385 
	C153.933533,54.375584 153.979095,65.736778 153.931732,77.560349 
z"/>
<path fill="#17214F" opacity="1.000000" stroke="none" 
	d="
M153.976929,42.555405 
	C153.460083,43.268147 153.032196,43.521912 152.066010,43.696732 
	C151.031525,42.102638 150.535339,40.587490 149.591446,39.050095 
	C146.760162,39.037399 144.376587,39.046955 141.547394,39.041393 
	C138.063354,38.700523 135.024918,38.374771 131.986465,38.049019 
	C132.040924,37.708450 132.095398,37.367886 132.261505,36.519234 
	C139.415237,36.011147 146.457352,36.011147 154.065872,36.011147 
	C154.065872,37.932644 154.065872,40.014534 153.976929,42.555405 
z"/>
<path fill="#D2ECF3" opacity="1.000000" stroke="none" 
	d="
M154.634766,116.955292 
	C154.254608,110.600487 154.211151,104.248550 154.269531,97.436684 
	C155.023117,96.983185 155.674881,96.989601 156.651947,96.993431 
	C156.983215,103.363831 156.989166,109.736824 156.991302,116.585068 
	C156.315475,117.026260 155.643463,116.992203 154.634766,116.955292 
z"/>
<path fill="#19255D" opacity="1.000000" stroke="none" 
	d="
M92.049568,38.943966 
	C92.285278,38.033669 92.520988,37.123371 93.038254,35.983444 
	C98.564011,35.698349 103.808189,35.642883 109.538811,36.044491 
	C110.009544,37.013596 109.993843,37.525623 109.978142,38.037651 
	C109.978142,38.037651 109.998772,37.999992 109.657074,37.995529 
	C108.471710,38.319695 107.628036,38.648319 106.331818,38.977821 
	C101.269379,38.967121 96.659470,38.955544 92.049568,38.943966 
z"/>
<path fill="#4B5886" opacity="1.000000" stroke="none" 
	d="
M110.271667,37.887016 
	C109.993843,37.525623 110.009544,37.013596 109.999481,36.118370 
	C110.553596,35.573681 111.133484,35.412189 111.878128,35.425507 
	C111.550323,36.312336 111.057755,37.024361 110.271667,37.887016 
z"/>
<path fill="#4B5886" opacity="1.000000" stroke="none" 
	d="
M94.420372,32.041912 
	C93.583557,31.704607 93.021523,31.191261 92.259689,30.465450 
	C92.755577,30.178026 93.451263,30.103065 94.497276,30.008085 
	C94.796791,30.614000 94.745979,31.239937 94.420372,32.041912 
z"/>
<path fill="#364676" opacity="1.000000" stroke="none" 
	d="
M49.006462,118.851097 
	C44.613911,118.880013 40.221359,118.908920 35.183090,118.625313 
	C35.201794,116.740044 35.866222,115.167290 36.928070,112.653809 
	C35.624191,111.075363 33.851196,108.929024 32.063217,106.439995 
	C32.008869,105.412071 31.969503,104.726830 32.253925,103.989761 
	C33.392513,102.966789 34.207317,101.995644 35.259197,101.024101 
	C35.496277,101.023705 35.970364,101.032417 36.205265,101.284760 
	C37.627029,101.024727 38.813896,100.512360 40.137260,99.718925 
	C40.851982,98.363289 41.430202,97.288734 42.468918,96.124039 
	C52.168728,96.033913 61.408054,96.033913 70.647377,96.033913 
	C70.641342,95.303329 70.635300,94.572739 70.629265,93.842155 
	C62.088436,93.842155 53.547611,93.842155 45.005428,93.469772 
	C45.012436,92.352715 45.020805,91.608025 45.417191,90.730469 
	C52.513714,90.401344 59.222099,90.066505 65.930771,90.060730 
	C69.964417,90.057259 73.998497,90.566673 77.887772,91.164169 
	C71.159172,95.219299 70.333008,105.710487 60.757149,105.989067 
	C60.442627,105.998215 60.199558,106.778549 59.837662,107.104431 
	C56.197056,110.382851 55.131645,116.257507 49.409031,117.479202 
	C49.187321,117.526527 49.136765,118.375603 49.006462,118.851097 
M51.345852,102.524162 
	C51.144852,102.471207 50.943851,102.418251 50.742851,102.365303 
	C50.872059,102.494499 51.001270,102.623695 51.345852,102.524162 
z"/>
<path fill="#32406A" opacity="1.000000" stroke="none" 
	d="
M87.006432,118.800972 
	C80.642159,118.877075 74.277878,118.953186 67.526001,118.547867 
	C67.517746,117.547722 67.837410,116.636787 68.285339,116.568619 
	C76.021927,115.391151 78.726601,107.647194 84.616531,103.858322 
	C88.570610,101.314751 90.304817,95.320305 93.408051,90.895592 
	C95.867737,90.313194 97.951599,89.705063 100.302200,88.942574 
	C100.750793,88.209015 100.932640,87.629814 101.414200,86.789246 
	C101.917542,84.359207 102.121178,82.190529 102.530663,79.769989 
	C104.492119,76.675110 106.247726,73.832092 108.299316,71.285645 
	C108.723030,78.386955 108.850769,85.191689 108.738174,92.196472 
	C108.332153,94.263931 108.166473,96.131340 107.939209,98.344696 
	C102.168777,104.298393 96.470718,109.917221 90.742241,115.504860 
	C89.554924,116.662979 88.254639,117.705284 87.006432,118.800972 
z"/>
<path fill="#33416F" opacity="1.000000" stroke="none" 
	d="
M93.032242,90.869858 
	C90.304817,95.320305 88.570610,101.314751 84.616531,103.858322 
	C78.726601,107.647194 76.021927,115.391151 68.285339,116.568619 
	C67.837410,116.636787 67.517746,117.547722 67.073914,118.419022 
	C61.314651,118.861328 55.619865,118.951057 49.465767,118.945938 
	C49.136765,118.375603 49.187321,117.526527 49.409031,117.479202 
	C55.131645,116.257507 56.197056,110.382851 59.837662,107.104431 
	C60.199558,106.778549 60.442627,105.998215 60.757149,105.989067 
	C70.333008,105.710487 71.159172,95.219299 78.273544,91.032547 
	C83.546700,90.678192 88.289474,90.774025 93.032242,90.869858 
z"/>
<path fill="#313D63" opacity="1.000000" stroke="none" 
	d="
M150.000870,77.013374 
	C149.999435,77.454964 149.998001,77.896545 149.689560,78.837021 
	C144.908905,83.588966 140.435242,87.842033 135.510590,92.091095 
	C126.144379,92.363060 126.904854,90.351601 126.883034,100.479736 
	C126.881279,101.291702 126.887558,102.103691 126.587585,103.040283 
	C125.412117,104.256546 124.539154,105.348183 123.666199,106.439819 
	C128.619232,110.108704 123.844368,114.655510 124.771561,118.687714 
	C121.471123,118.776917 118.170692,118.866119 114.432167,118.448784 
	C113.687843,113.594269 113.381607,109.246292 113.324127,104.700073 
	C114.034485,103.348022 114.496094,102.194221 115.275070,101.305290 
	C118.625854,101.570160 121.659256,101.570160 124.900040,101.570160 
	C124.520294,97.290726 127.431793,91.952713 120.028381,91.509277 
	C120.028893,90.972824 120.030090,90.665314 120.483185,90.287369 
	C124.190147,90.216927 127.444969,90.216927 130.699799,90.216927 
	C130.718185,89.644096 130.736557,89.071266 130.754944,88.498436 
	C128.176880,88.260574 125.598801,88.022713 123.023911,87.664139 
	C123.027092,87.543427 123.030281,87.301949 123.483345,87.213402 
	C128.042587,87.124855 132.148773,87.124855 137.496841,87.124855 
	C135.458252,85.375473 134.619171,84.655411 133.930405,83.650505 
	C133.472427,82.594673 132.946396,81.734184 132.232559,81.077988 
	C131.524628,80.427208 130.627518,79.982216 129.961823,79.108589 
	C131.080444,76.585625 132.050629,74.401047 133.479706,72.159332 
	C138.240433,71.747627 142.542282,71.393059 146.894531,70.651093 
	C147.338730,68.518242 147.732559,66.772789 148.506317,65.128937 
	C149.257812,69.158150 149.629333,73.085762 150.000870,77.013374 
z"/>
<path fill="#2F3D65" opacity="1.000000" stroke="none" 
	d="
M87.461861,118.918243 
	C88.254639,117.705284 89.554924,116.662979 90.742241,115.504860 
	C96.470718,109.917221 102.168777,104.298393 108.233749,98.641182 
	C108.717888,105.364914 108.845901,112.138084 108.973915,118.911263 
	C101.955040,118.952682 94.936165,118.994095 87.461861,118.918243 
z"/>
<path fill="#151F4E" opacity="1.000000" stroke="none" 
	d="
M113.075371,104.898308 
	C113.381607,109.246292 113.687843,113.594269 113.979889,118.382584 
	C112.925079,118.864746 111.884460,118.906563 110.429886,118.444298 
	C109.969803,109.285927 109.923660,100.631645 109.922836,91.512482 
	C109.978416,88.904320 109.912056,86.757393 110.013657,84.618446 
	C110.292656,78.745216 110.642166,72.875336 110.963776,67.004135 
	C111.303856,66.503960 111.643944,66.003784 112.268295,65.374405 
	C112.731865,65.821457 112.911171,66.397720 113.057014,67.444160 
	C113.040833,80.242332 113.058105,92.570320 113.075371,104.898308 
z"/>
<path fill="#7348CA" opacity="1.000000" stroke="none" 
	d="
M125.063416,118.861862 
	C123.844368,114.655510 128.619232,110.108704 123.666199,106.439819 
	C124.539154,105.348183 125.412117,104.256546 126.922417,103.055374 
	C128.004684,102.951668 128.449600,102.957497 129.198547,103.255196 
	C129.680084,109.062012 129.857574,114.576965 130.035049,120.091904 
	C128.964371,120.095345 127.893700,120.098778 126.516632,120.075500 
	C125.925255,119.711189 125.640266,119.373596 125.063416,118.861862 
z"/>
<path fill="#F5981E" opacity="1.000000" stroke="none" 
	d="
M32.078201,106.782684 
	C33.851196,108.929024 35.624191,111.075363 36.928070,112.653809 
	C35.866222,115.167290 35.201794,116.740044 34.711960,118.596321 
	C34.806458,119.836624 34.726364,120.793396 34.366905,121.982956 
	C33.278896,122.325325 32.470257,122.434921 31.554951,122.228798 
	C31.658260,116.869614 31.868233,111.826149 32.078201,106.782684 
z"/>
<path fill="#4F5A7C" opacity="1.000000" stroke="none" 
	d="
M109.877518,91.977356 
	C109.923660,100.631645 109.969803,109.285927 110.041046,118.398804 
	C109.886101,118.906540 109.706047,118.955704 109.249954,118.958061 
	C108.845901,112.138084 108.717888,105.364914 108.295334,98.295242 
	C108.166473,96.131340 108.332153,94.263931 108.963089,92.193794 
	C109.428329,91.991074 109.877518,91.977356 109.877518,91.977356 
z"/>
<path fill="#6D3FC9" opacity="1.000000" stroke="none" 
	d="
M130.427582,120.055603 
	C129.857574,114.576965 129.680084,109.062012 129.343155,102.992859 
	C129.648544,101.806519 130.113388,101.174385 130.622940,100.481422 
	C131.470734,101.058113 132.263763,101.597557 133.182953,102.450348 
	C137.334396,105.739288 137.211029,109.467033 135.595581,113.715675 
	C134.981796,115.329948 135.232742,117.273026 135.089569,119.066238 
	C134.877747,119.338608 134.665939,119.610977 134.211487,119.994308 
	C132.919266,120.076614 131.869705,120.047958 130.427582,120.055603 
z"/>
<path fill="#FC7806" opacity="1.000000" stroke="none" 
	d="
M32.063217,106.439995 
	C31.868233,111.826149 31.658260,116.869614 31.247362,122.251923 
	C30.266394,122.479080 29.486353,122.367401 28.376766,122.215347 
	C27.554073,120.858940 27.060923,119.542923 26.265270,118.021225 
	C25.649370,114.849312 25.335972,111.883072 25.368464,108.400597 
	C26.820951,106.629265 27.927549,105.374168 29.393223,104.065353 
	C30.478247,104.021622 31.204193,104.031609 31.930138,104.041595 
	C31.969503,104.726830 32.008869,105.412071 32.063217,106.439995 
z"/>
<path fill="#464F75" opacity="1.000000" stroke="none" 
	d="
M30.958744,143.037506 
	C31.021729,143.030106 31.125002,142.986420 31.077858,143.012573 
	C30.927439,143.082428 30.999033,143.001236 30.958744,143.037506 
z"/>
<path fill="#2E3A5C" opacity="1.000000" stroke="none" 
	d="
M135.547211,119.062210 
	C135.232742,117.273026 134.981796,115.329948 135.595581,113.715675 
	C137.211029,109.467033 137.334396,105.739288 133.601181,102.398773 
	C134.600708,101.182877 135.814697,100.388550 135.917419,99.469963 
	C136.189102,97.040405 135.979568,94.557045 135.961578,92.095093 
	C140.435242,87.842033 144.908905,83.588966 149.690277,79.168213 
	C150.738144,79.009918 151.478271,79.019310 152.587006,79.043243 
	C152.297821,81.132927 151.640015,83.208076 150.707703,85.898636 
	C149.882309,88.202637 148.824234,89.903572 148.864990,91.577759 
	C149.086578,100.682358 149.579132,109.780365 149.978424,118.880638 
	C145.320557,118.939819 140.662689,118.999001 135.547211,119.062210 
z"/>
<path fill="#454D69" opacity="1.000000" stroke="none" 
	d="
M150.246658,118.931580 
	C149.579132,109.780365 149.086578,100.682358 148.864990,91.577759 
	C148.824234,89.903572 149.882309,88.202637 150.686188,86.291473 
	C150.964676,96.699623 150.990143,107.330345 151.033615,118.421509 
	C150.872696,118.915474 150.693802,118.948997 150.246658,118.931580 
z"/>
<path fill="#4B5886" opacity="1.000000" stroke="none" 
	d="
M90.730759,30.162512 
	C90.130859,30.918451 89.213745,31.610302 88.151375,32.063904 
	C88.808594,31.249910 89.611069,30.674166 90.730759,30.162512 
z"/>
<path fill="#3B4B7E" opacity="1.000000" stroke="none" 
	d="
M29.034145,104.119072 
	C27.927549,105.374168 26.820951,106.629265 25.410381,107.976677 
	C25.073397,106.005089 25.040386,103.941177 25.006887,101.002762 
	C25.335152,94.422623 25.663904,88.716995 26.138527,82.689522 
	C28.168591,79.248024 30.052786,76.128380 32.007713,73.466972 
	C32.108807,78.164986 32.139172,82.404747 32.019455,86.998932 
	C30.521994,90.327881 31.502914,91.005676 34.610119,90.723206 
	C38.050457,90.410446 41.553455,90.786980 45.029167,90.863342 
	C45.020805,91.608025 45.012436,92.352715 44.544617,93.513565 
	C40.396866,93.929733 36.708572,93.929733 33.020275,93.929733 
	C33.020061,94.525383 33.019848,95.121033 33.019634,95.716690 
	C36.015900,95.882515 39.012161,96.048347 42.008427,96.214172 
	C41.430202,97.288734 40.851982,98.363289 39.769791,99.718727 
	C38.167339,100.343872 37.068851,100.688148 35.970364,101.032425 
	C35.970364,101.032417 35.496277,101.023705 35.106079,100.733902 
	C30.100969,97.462257 30.978294,102.971756 29.034145,104.119072 
z"/>
<path fill="#5F6C98" opacity="1.000000" stroke="none" 
	d="
M25.992657,83.011368 
	C25.663904,88.716995 25.335152,94.422623 25.002888,100.559639 
	C24.669783,97.278885 24.077927,93.568321 24.055544,89.854324 
	C23.953224,72.876900 24.010597,55.898518 24.010597,37.947792 
	C35.554710,37.947792 46.792576,37.947792 58.488213,37.862587 
	C59.548943,38.009174 60.151905,38.240967 60.458130,38.738258 
	C49.996460,39.005527 39.827789,39.166397 29.668528,38.927406 
	C25.834990,38.837223 24.857859,40.176407 24.920372,43.823616 
	C25.120247,55.484921 24.960842,67.152023 25.038315,78.816246 
	C25.047617,80.216667 25.659872,81.613091 25.992657,83.011368 
z"/>
<path fill="#F44336" opacity="1.000000" stroke="none" 
	d="
M87.017967,45.293655 
	C88.099358,45.488407 89.180740,45.683159 91.053116,45.916576 
	C94.896965,46.311478 97.949829,46.667717 100.954788,47.369179 
	C100.599472,48.834309 100.292068,49.954216 99.828796,51.362835 
	C95.139351,56.095661 90.605782,60.539783 85.741425,65.013680 
	C84.581238,65.699707 83.751839,66.355949 82.589203,67.010254 
	C81.811691,67.014572 81.367416,67.020836 80.707962,66.995941 
	C80.181709,66.896561 79.970322,66.713326 79.854530,66.203857 
	C79.566002,65.997658 79.281570,66.002678 78.639481,66.184967 
	C75.528015,66.436821 72.774208,66.511414 69.989265,66.371925 
	C69.764259,65.983299 69.570396,65.808746 69.376526,65.634193 
	C69.231186,66.022377 69.085854,66.410568 68.757996,67.125565 
	C67.741875,73.768829 73.000404,69.727898 74.813751,71.501366 
	C70.118889,76.843918 65.608681,81.915375 60.779205,87.016830 
	C59.971020,87.643097 59.482094,88.239380 58.529663,88.905777 
	C51.142204,88.984253 44.215046,89.105431 37.296875,88.909508 
	C35.844036,88.868370 34.424225,87.661209 33.000278,86.523941 
	C33.013195,73.089653 33.015030,60.122753 33.089844,46.871834 
	C33.478062,46.382278 33.793312,46.176746 34.565182,45.989971 
	C52.082512,46.497074 69.143005,46.994995 86.206001,47.382282 
	C86.460724,47.388065 86.746620,46.020359 87.017967,45.293655 
M38.075447,80.418701 
	C45.351746,83.135544 52.554535,82.031509 59.762039,79.955444 
	C52.547798,78.325752 45.350399,76.931732 38.075447,80.418701 
M53.443687,67.182976 
	C53.701054,68.432266 53.869141,70.735619 54.229733,70.766167 
	C57.479076,71.041389 60.769611,71.031052 64.029167,70.816902 
	C64.687599,70.773643 65.266251,69.516136 65.881676,68.818443 
	C65.103973,68.158897 64.363609,66.990662 63.541935,66.930367 
	C60.450714,66.703522 57.333000,66.837654 53.443687,67.182976 
M49.851059,52.835625 
	C50.121567,51.940361 50.392071,51.045094 50.662579,50.149830 
	C46.443985,50.149830 42.225395,50.149830 38.006802,50.149830 
	C37.983425,50.906033 37.960049,51.662239 37.936672,52.418442 
	C41.617279,52.563412 45.297882,52.708385 49.851059,52.835625 
z"/>
<path fill="#3B4A81" opacity="1.000000" stroke="none" 
	d="
M34.108559,45.971214 
	C33.793312,46.176746 33.478062,46.382278 32.825623,47.172523 
	C32.304615,56.174400 32.120796,64.591560 31.936979,73.008728 
	C30.052786,76.128380 28.168591,79.248024 26.138527,82.689522 
	C25.659872,81.613091 25.047617,80.216667 25.038315,78.816246 
	C24.960842,67.152023 25.120247,55.484921 24.920372,43.823616 
	C24.857859,40.176407 25.834990,38.837223 29.668528,38.927406 
	C39.827789,39.166397 49.996460,39.005527 60.644024,39.004539 
	C61.126663,39.005318 61.574509,38.979160 61.781647,39.348595 
	C61.339588,41.452698 60.690392,43.187370 59.576752,45.020935 
	C57.134415,45.139866 55.154766,45.113632 53.178951,45.188480 
	C46.821392,45.429325 40.465248,45.707462 34.108559,45.971214 
z"/>
<path fill="#38477B" opacity="1.000000" stroke="none" 
	d="
M60.041191,44.922043 
	C60.690392,43.187370 61.339588,41.452698 62.005932,39.351582 
	C62.023079,38.985138 62.458668,38.988678 63.156490,38.996140 
	C69.629448,39.002842 75.408875,38.883430 81.176422,39.092255 
	C82.472351,39.139183 83.726753,40.333145 85.000267,40.999058 
	C85.317139,42.112919 85.634010,43.226784 85.539337,44.774296 
	C76.765602,45.112644 68.403397,45.017345 60.041191,44.922043 
z"/>
<path fill="#394777" opacity="1.000000" stroke="none" 
	d="
M101.002686,47.023956 
	C97.949829,46.667717 94.896965,46.311478 91.398270,45.871674 
	C89.296165,43.473648 88.658516,41.236874 91.749893,39.102814 
	C96.659470,38.955544 101.269379,38.967121 106.639595,39.003944 
	C107.603699,39.046875 107.807480,39.064560 107.964554,39.418900 
	C106.016586,42.513958 104.115334,45.272366 102.035126,47.835072 
	C101.571671,47.434231 101.287178,47.229095 101.002686,47.023956 
z"/>
<path fill="#F1473C" opacity="1.000000" stroke="none" 
	d="
M59.576752,45.020935 
	C68.403397,45.017345 76.765602,45.112644 85.597488,45.119400 
	C86.067169,45.030849 86.534576,45.190720 86.776276,45.242188 
	C86.746620,46.020359 86.460724,47.388065 86.206001,47.382282 
	C69.143005,46.994995 52.082512,46.497074 34.565182,45.989971 
	C40.465248,45.707462 46.821392,45.429325 53.178951,45.188480 
	C55.154766,45.113632 57.134415,45.139866 59.576752,45.020935 
z"/>
<path fill="#636E97" opacity="1.000000" stroke="none" 
	d="
M85.278442,40.756649 
	C83.726753,40.333145 82.472351,39.139183 81.176422,39.092255 
	C75.408875,38.883430 69.629448,39.002842 63.374001,39.007362 
	C70.155693,38.733601 77.417160,38.430080 84.681786,38.278465 
	C84.957726,38.272709 85.264313,39.735683 85.278442,40.756649 
z"/>
<path fill="#37446F" opacity="1.000000" stroke="none" 
	d="
M114.076851,38.936264 
	C119.072197,38.966022 124.067535,38.995777 129.520554,39.399284 
	C128.011475,43.552315 126.044716,47.331600 123.825455,51.392735 
	C120.800407,53.027912 116.108170,51.663319 116.076149,57.371414 
	C115.968842,59.495834 115.895851,61.194202 115.520844,63.014854 
	C114.811462,62.155720 114.062080,61.177952 114.051552,60.192287 
	C113.975883,53.107841 114.050163,46.021801 114.076851,38.936264 
z"/>
<path fill="#35426B" opacity="1.000000" stroke="none" 
	d="
M124.077957,51.110886 
	C126.044716,47.331600 128.011475,43.552315 129.986542,39.415863 
	C130.483643,38.785103 130.972427,38.511509 131.723846,38.143463 
	C135.024918,38.374771 138.063354,38.700523 141.505371,39.386436 
	C139.889297,43.267185 137.869675,46.787769 135.548096,50.380791 
	C133.028687,51.111614 130.811203,51.770000 128.275223,52.284565 
	C126.663788,51.797459 125.370872,51.454174 124.077957,51.110886 
z"/>
<path fill="#596387" opacity="1.000000" stroke="none" 
	d="
M108.011269,39.082245 
	C107.807480,39.064560 107.603699,39.046875 107.092133,39.003071 
	C107.628036,38.648319 108.471710,38.319695 109.673935,37.982243 
	C110.147430,47.452297 110.262367,56.931171 110.670532,66.707092 
	C110.642166,72.875336 110.292656,78.745216 110.013657,84.618446 
	C109.912056,86.757393 109.978416,88.904320 109.922836,91.512482 
	C109.877518,91.977356 109.428329,91.991074 109.203415,91.993752 
	C108.850769,85.191689 108.723030,78.386955 108.353745,70.871658 
	C108.407654,61.830505 108.779343,53.501415 108.943726,45.168232 
	C108.983597,43.146488 108.340385,41.111267 108.011269,39.082245 
z"/>
<path fill="#596487" opacity="1.000000" stroke="none" 
	d="
M113.776039,38.821678 
	C114.050163,46.021801 113.975883,53.107841 114.051552,60.192287 
	C114.062080,61.177952 114.811462,62.155720 115.565613,63.446388 
	C115.900154,65.192719 115.887886,66.629807 115.680832,67.927986 
	C114.980927,67.518951 114.475807,67.248817 113.750748,66.983406 
	C113.530815,66.988129 113.090469,66.973976 113.090469,66.973976 
	C112.911171,66.397720 112.731865,65.821457 112.308472,65.061142 
	C112.376152,59.867775 112.715073,54.859962 112.990715,49.848675 
	C113.194870,46.137161 113.316719,42.421120 113.776039,38.821678 
z"/>
<path fill="#475071" opacity="1.000000" stroke="none" 
	d="
M150.308319,76.726105 
	C149.629333,73.085762 149.257812,69.158150 148.461914,64.684357 
	C147.984238,61.763485 147.930939,59.388783 147.930725,56.758919 
	C148.017288,56.333389 148.050766,56.163033 148.344666,55.773148 
	C149.083099,50.059864 149.561127,44.566101 150.039154,39.072342 
	C150.535339,40.587490 151.031525,42.102638 151.840866,43.803589 
	C151.768219,49.376183 151.280518,54.758156 151.025131,60.151131 
	C150.768311,65.574661 150.742691,71.009148 150.308319,76.726105 
z"/>
<path fill="#344167" opacity="1.000000" stroke="none" 
	d="
M149.591461,39.050095 
	C149.561127,44.566101 149.083099,50.059864 148.300537,55.388050 
	C147.778961,52.378292 146.239624,51.839108 143.580734,52.160568 
	C141.147232,52.454781 138.625412,52.018574 136.090302,51.637848 
	C135.975418,51.017097 135.912735,50.662727 135.850052,50.308357 
	C137.869675,46.787769 139.889297,43.267185 141.950958,39.401550 
	C144.376587,39.046955 146.760162,39.037399 149.591461,39.050095 
z"/>
<path fill="#806783" opacity="1.000000" stroke="none" 
	d="
M32.989197,86.991341 
	C34.424225,87.661209 35.844036,88.868370 37.296875,88.909508 
	C44.215046,89.105431 51.142204,88.984253 58.797573,88.923752 
	C59.706165,88.845650 59.883343,88.819717 60.522346,88.848083 
	C74.001266,88.967224 87.018372,89.032074 100.035469,89.096931 
	C97.951599,89.705063 95.867737,90.313194 93.408051,90.895592 
	C88.289474,90.774025 83.546700,90.678192 78.418159,90.713982 
	C73.998497,90.566673 69.964417,90.057259 65.930771,90.060730 
	C59.222099,90.066505 52.513714,90.401344 45.417187,90.730469 
	C41.553455,90.786980 38.050457,90.410446 34.610119,90.723206 
	C31.502914,91.005676 30.521994,90.327881 32.221645,87.093178 
	C32.573914,86.833015 32.989197,86.991341 32.989197,86.991341 
z"/>
<path fill="#EEEEF2" opacity="1.000000" stroke="none" 
	d="
M42.468918,96.124039 
	C39.012161,96.048347 36.015900,95.882515 33.019634,95.716690 
	C33.019848,95.121033 33.020061,94.525383 33.020275,93.929733 
	C36.708572,93.929733 40.396866,93.929733 44.545975,93.885941 
	C53.547611,93.842155 62.088436,93.842155 70.629265,93.842155 
	C70.635300,94.572739 70.641342,95.303329 70.647377,96.033913 
	C61.408054,96.033913 52.168728,96.033913 42.468918,96.124039 
z"/>
<path fill="#3E4C7D" opacity="1.000000" stroke="none" 
	d="
M29.393223,104.065353 
	C30.978294,102.971756 30.100969,97.462257 34.868996,100.734299 
	C34.207317,101.995644 33.392513,102.966789 32.253925,103.989761 
	C31.204193,104.031609 30.478247,104.021622 29.393223,104.065353 
z"/>
<path fill="#3E4C7D" opacity="1.000000" stroke="none" 
	d="
M36.205265,101.284760 
	C37.068851,100.688148 38.167339,100.343872 39.633293,99.999802 
	C38.813896,100.512360 37.627029,101.024727 36.205265,101.284760 
z"/>
<path fill="#3E4C7D" opacity="1.000000" stroke="none" 
	d="
M51.238167,102.638527 
	C51.001270,102.623695 50.872059,102.494499 50.742851,102.365303 
	C50.943851,102.418251 51.144852,102.471207 51.238167,102.638527 
z"/>
<path fill="#F44437" opacity="1.000000" stroke="none" 
	d="
M100.302200,88.942574 
	C87.018372,89.032074 74.001266,88.967224 60.635948,88.614960 
	C60.557972,87.880653 60.828220,87.433746 61.098465,86.986839 
	C65.608681,81.915375 70.118889,76.843918 75.238197,71.446999 
	C78.329994,70.737022 82.252808,72.137787 80.923141,67.027100 
	C81.367416,67.020836 81.811691,67.014572 82.898201,67.023483 
	C83.746002,67.039467 83.951569,67.040283 84.087753,67.452591 
	C85.103378,68.936234 86.044037,70.656204 87.305313,70.937233 
	C89.506516,71.427696 91.934616,71.238770 94.207275,70.913261 
	C95.203667,70.770554 96.051636,69.591560 96.966995,68.883125 
	C96.134277,68.049347 95.361389,66.585030 94.457695,66.499290 
	C91.679253,66.235664 88.850746,66.499695 86.050453,66.295868 
	C86.063538,65.683357 86.067879,65.333626 86.072220,64.983902 
	C90.605782,60.539783 95.139351,56.095661 100.120399,51.623951 
	C100.695053,54.051723 100.822227,56.507084 100.784142,59.262947 
	C100.784088,68.725838 100.949287,77.888222 101.114487,87.050613 
	C100.932640,87.629814 100.750793,88.209015 100.302200,88.942574 
z"/>
<path fill="#374471" opacity="1.000000" stroke="none" 
	d="
M107.964554,39.418900 
	C108.340385,41.111267 108.983597,43.146488 108.943726,45.168232 
	C108.779343,53.501415 108.407654,61.830505 108.057755,70.575089 
	C106.247726,73.832092 104.492119,76.675110 102.437157,79.306290 
	C102.018723,72.377907 101.899635,65.661369 101.831680,58.493797 
	C101.993233,54.705429 102.103661,51.368103 102.214081,48.030777 
	C104.115334,45.272366 106.016586,42.513958 107.964554,39.418900 
z"/>
<path fill="#CB7073" opacity="1.000000" stroke="none" 
	d="
M101.780548,58.944836 
	C101.899635,65.661369 102.018723,72.377907 102.231316,79.558151 
	C102.121178,82.190529 101.917542,84.359207 101.414200,86.789246 
	C100.949287,77.888222 100.784088,68.725838 100.992233,59.262745 
	C101.365593,58.962040 101.780548,58.944836 101.780548,58.944836 
z"/>
<path fill="#38446A" opacity="1.000000" stroke="none" 
	d="
M113.970688,66.978683 
	C114.475807,67.248817 114.980927,67.518951 115.734108,68.253632 
	C116.027634,69.156631 116.073105,69.595078 116.145790,70.444107 
	C117.654175,71.236618 119.122124,71.874016 120.619041,71.951492 
	C124.746475,72.165115 128.886047,72.144455 133.020813,72.216461 
	C132.050629,74.401047 131.080444,76.585625 129.748642,79.378716 
	C127.920601,80.686317 126.516220,81.739334 124.974625,82.009552 
	C121.927704,82.543633 118.804871,82.644623 115.345390,82.817894 
	C114.641800,77.466972 114.306244,72.222824 113.970688,66.978683 
z"/>
<path fill="#6144CE" opacity="1.000000" stroke="none" 
	d="
M147.877640,57.014084 
	C147.930939,59.388783 147.984238,61.763485 148.081955,64.582764 
	C147.732559,66.772789 147.338730,68.518242 146.458893,70.645767 
	C143.320084,70.993614 140.667297,70.959381 138.018509,70.550247 
	C139.349136,65.451225 140.675781,60.727100 142.381744,56.009399 
	C144.466599,56.348572 146.172119,56.681328 147.877640,57.014084 
z"/>
<path fill="#8A91A7" opacity="1.000000" stroke="none" 
	d="
M120.029343,91.738213 
	C127.431793,91.952713 124.520294,97.290726 124.900040,101.570160 
	C121.659256,101.570160 118.625854,101.570160 115.267166,100.945992 
	C114.914116,99.843895 114.886353,99.365974 114.924438,98.480682 
	C114.396774,94.153465 115.618301,91.677338 120.029343,91.738213 
z"/>
<path fill="#868DA6" opacity="1.000000" stroke="none" 
	d="
M135.510590,92.091095 
	C135.979568,94.557045 136.189102,97.040405 135.917419,99.469963 
	C135.814697,100.388550 134.600708,101.182877 133.475037,102.085419 
	C132.263763,101.597557 131.470734,101.058113 130.622940,100.481422 
	C130.113388,101.174385 129.648544,101.806519 129.039124,102.700989 
	C128.449600,102.957497 128.004684,102.951668 127.224930,102.930756 
	C126.887558,102.103691 126.881279,101.291702 126.883034,100.479736 
	C126.904854,90.351601 126.144379,92.363060 135.510590,92.091095 
z"/>
<path fill="#8F95A9" opacity="1.000000" stroke="none" 
	d="
M133.780075,83.935349 
	C134.619171,84.655411 135.458252,85.375473 137.496841,87.124855 
	C132.148773,87.124855 128.042587,87.124855 123.021500,87.123253 
	C119.890007,87.078934 117.673439,87.036209 115.483307,86.986847 
	C115.509743,86.980202 115.521683,87.033401 115.410316,86.707825 
	C115.347397,85.930626 115.395836,85.478989 115.582443,85.059875 
	C115.720596,85.092392 115.993904,85.015686 116.436356,85.017410 
	C119.482101,84.990608 122.085388,84.962082 125.111229,84.957001 
	C128.282547,84.632080 131.031311,84.283714 133.780075,83.935349 
z"/>
<path fill="#A6B3C2" opacity="1.000000" stroke="none" 
	d="
M133.930405,83.650497 
	C131.031311,84.283714 128.282547,84.632080 124.845825,84.694565 
	C121.434875,84.290291 118.711899,84.171906 115.870407,83.783417 
	C115.739067,83.317101 115.726242,83.120888 115.713425,82.924675 
	C118.804871,82.644623 121.927704,82.543633 124.974625,82.009552 
	C126.516220,81.739334 127.920601,80.686317 129.600204,79.717094 
	C130.627518,79.982216 131.524628,80.427208 132.232559,81.077988 
	C132.946396,81.734184 133.472427,82.594673 133.930405,83.650497 
z"/>
<path fill="#4C5779" opacity="1.000000" stroke="none" 
	d="
M115.345390,82.817894 
	C115.726242,83.120888 115.739067,83.317101 115.865921,84.023987 
	C115.979942,84.534653 115.993904,85.015686 115.993904,85.015686 
	C115.993904,85.015686 115.720596,85.092392 115.221893,85.233200 
	C114.503395,86.107635 114.283600,86.841248 114.279175,87.759354 
	C114.352242,88.439514 114.209930,88.935181 114.051323,89.907959 
	C114.309547,93.219398 114.584068,96.053719 114.858589,98.888046 
	C114.886353,99.365974 114.914116,99.843895 114.949783,100.681122 
	C114.496094,102.194221 114.034485,103.348022 113.324127,104.700073 
	C113.058105,92.570320 113.040833,80.242332 113.057014,67.444160 
	C113.090469,66.973976 113.530815,66.988129 113.750748,66.983406 
	C114.306244,72.222824 114.641800,77.466972 115.345390,82.817894 
z"/>
<path fill="#8274C1" opacity="1.000000" stroke="none" 
	d="
M138.014526,70.925148 
	C140.667297,70.959381 143.320084,70.993614 146.408493,71.033165 
	C142.542282,71.393059 138.240433,71.747627 133.479706,72.159332 
	C128.886047,72.144455 124.746475,72.165115 120.619041,71.951492 
	C119.122124,71.874016 117.654175,71.236618 116.501328,70.479515 
	C118.879539,70.084969 120.929443,70.065605 123.240501,70.303268 
	C125.651688,70.059578 127.801712,69.558861 130.057190,69.433174 
	C132.779922,70.180519 135.397232,70.552834 138.014526,70.925148 
z"/>
<path fill="#9FA4B6" opacity="1.000000" stroke="none" 
	d="
M114.067627,89.430847 
	C114.209930,88.935181 114.352242,88.439514 114.689697,87.747757 
	C115.097122,87.378914 115.309402,87.206154 115.521683,87.033401 
	C115.521683,87.033401 115.509743,86.980202 115.750359,87.344330 
	C118.334229,87.733925 120.677475,87.759384 123.020729,87.784843 
	C125.598801,88.022713 128.176880,88.260574 130.754944,88.498436 
	C130.736557,89.071266 130.718185,89.644096 130.699799,90.216927 
	C127.444969,90.216927 124.190147,90.216927 120.072815,90.147179 
	C117.496086,89.861908 115.781853,89.646378 114.067627,89.430847 
z"/>
<path fill="#38446A" opacity="1.000000" stroke="none" 
	d="
M114.051323,89.907959 
	C115.781853,89.646378 117.496086,89.861908 119.620674,90.217621 
	C120.030090,90.665314 120.028893,90.972824 120.028381,91.509277 
	C115.618301,91.677338 114.396774,94.153465 114.924438,98.480682 
	C114.584068,96.053719 114.309547,93.219398 114.051323,89.907959 
z"/>
<path fill="#38446A" opacity="1.000000" stroke="none" 
	d="
M123.023911,87.664139 
	C120.677475,87.759384 118.334229,87.733925 115.723923,87.350975 
	C117.673439,87.036209 119.890007,87.078934 122.568436,87.211800 
	C123.030281,87.301949 123.027092,87.543427 123.023911,87.664139 
z"/>
<path fill="#F1473C" opacity="1.000000" stroke="none" 
	d="
M33.000278,86.523941 
	C32.989197,86.991341 32.573914,86.833015 32.371727,86.738770 
	C32.139172,82.404747 32.108807,78.164986 32.007710,73.466972 
	C32.120796,64.591560 32.304615,56.174400 32.752651,47.456547 
	C33.015030,60.122753 33.013195,73.089653 33.000278,86.523941 
z"/>
<path fill="#E0BFCC" opacity="1.000000" stroke="none" 
	d="
M38.073662,79.992111 
	C45.350399,76.931732 52.547798,78.325752 59.762039,79.955444 
	C52.554535,82.031509 45.351746,83.135544 38.073662,79.992111 
z"/>
<path fill="#D5E0F7" opacity="1.000000" stroke="none" 
	d="
M53.834450,67.009773 
	C57.333000,66.837654 60.450714,66.703522 63.541935,66.930367 
	C64.363609,66.990662 65.103973,68.158897 65.881683,68.818443 
	C65.266251,69.516136 64.687599,70.773643 64.029167,70.816902 
	C60.769611,71.031052 57.479076,71.041389 54.229733,70.766167 
	C53.869141,70.735619 53.701054,68.432266 53.834450,67.009773 
z"/>
<path fill="#D3DEF4" opacity="1.000000" stroke="none" 
	d="
M80.707962,66.995941 
	C82.252808,72.137787 78.329994,70.737022 75.422852,71.175911 
	C73.000404,69.727898 67.741875,73.768829 69.044235,67.155006 
	C69.682144,66.767097 69.851280,66.676552 70.020409,66.585999 
	C72.774208,66.511414 75.528015,66.436821 78.846725,66.303993 
	C79.411636,66.245758 79.858627,66.415077 79.858627,66.415077 
	C79.970322,66.713326 80.181709,66.896561 80.707962,66.995941 
z"/>
<path fill="#6BD7EF" opacity="1.000000" stroke="none" 
	d="
M49.414772,52.844490 
	C45.297882,52.708385 41.617279,52.563412 37.936672,52.418442 
	C37.960049,51.662239 37.983425,50.906033 38.006802,50.149830 
	C42.225395,50.149830 46.443985,50.149830 50.662579,50.149830 
	C50.392071,51.045094 50.121567,51.940361 49.414772,52.844490 
z"/>
<path fill="#EA655E" opacity="1.000000" stroke="none" 
	d="
M101.831680,58.493797 
	C101.780548,58.944836 101.365593,58.962040 101.157501,58.962242 
	C100.822227,56.507084 100.695053,54.051723 100.276276,51.335243 
	C100.292068,49.954216 100.599472,48.834309 100.954788,47.369179 
	C101.287178,47.229095 101.571671,47.434231 102.035126,47.835072 
	C102.103661,51.368103 101.993233,54.705429 101.831680,58.493797 
z"/>
<path fill="#EA655E" opacity="1.000000" stroke="none" 
	d="
M84.157135,67.041107 
	C83.951569,67.040283 83.746002,67.039467 83.231438,67.025429 
	C83.751839,66.355949 84.581238,65.699707 85.741425,65.013680 
	C86.067879,65.333626 86.063538,65.683357 85.762863,66.459503 
	C85.030052,66.937653 84.593597,66.989380 84.157135,67.041107 
z"/>
<path fill="#F65D52" opacity="1.000000" stroke="none" 
	d="
M60.779205,87.016830 
	C60.828220,87.433746 60.557972,87.880653 60.174126,88.560669 
	C59.883343,88.819717 59.706165,88.845650 59.261078,88.853622 
	C59.482094,88.239380 59.971020,87.643097 60.779205,87.016830 
z"/>
<path fill="#F44C40" opacity="1.000000" stroke="none" 
	d="
M69.989265,66.371933 
	C69.851280,66.676552 69.682144,66.767097 69.226761,66.828201 
	C69.085854,66.410568 69.231186,66.022377 69.376526,65.634193 
	C69.570396,65.808746 69.764259,65.983299 69.989265,66.371933 
z"/>
<path fill="#F44C40" opacity="1.000000" stroke="none" 
	d="
M79.854530,66.203857 
	C79.858627,66.415077 79.411636,66.245758 79.204391,66.126724 
	C79.281570,66.002678 79.566002,65.997658 79.854530,66.203857 
z"/>
<path fill="#7957CE" opacity="1.000000" stroke="none" 
	d="
M122.979340,70.046242 
	C120.929443,70.065605 118.879539,70.084969 116.474106,70.068924 
	C116.073105,69.595078 116.027634,69.156631 115.928894,68.392548 
	C115.887886,66.629807 115.900154,65.192719 115.867645,63.324097 
	C115.895851,61.194202 115.968842,59.495834 116.466614,57.397087 
	C120.580727,56.283672 124.270058,55.570648 127.959396,55.254204 
	C126.299385,60.449265 124.639359,65.247749 122.979340,70.046242 
z"/>
<path fill="#EA544D" opacity="1.000000" stroke="none" 
	d="
M127.959381,54.857624 
	C124.270058,55.570648 120.580727,56.283672 116.500938,56.971031 
	C116.108170,51.663319 120.800407,53.027912 123.825455,51.392731 
	C125.370872,51.454174 126.663788,51.797459 128.330597,52.536758 
	C128.456100,53.574387 128.207748,54.216007 127.959381,54.857624 
z"/>
<path fill="#7250CD" opacity="1.000000" stroke="none" 
	d="
M127.959396,55.254204 
	C128.207748,54.216007 128.456100,53.574387 128.649109,52.680580 
	C130.811203,51.770000 133.028687,51.111614 135.548096,50.380795 
	C135.912735,50.662727 135.975418,51.017097 136.044891,52.046066 
	C136.037277,53.811695 136.022858,54.902714 135.744110,56.235878 
	C133.637100,60.671394 131.794418,64.864769 129.951736,69.058144 
	C127.801712,69.558861 125.651688,70.059578 123.240494,70.303268 
	C124.639359,65.247749 126.299385,60.449265 127.959396,55.254204 
z"/>
<path fill="#6641BE" opacity="1.000000" stroke="none" 
	d="
M136.008423,55.993736 
	C136.022858,54.902714 136.037277,53.811695 136.097107,52.312454 
	C138.625412,52.018574 141.147232,52.454781 143.580734,52.160568 
	C146.239624,51.839108 147.778961,52.378292 148.040115,55.607574 
	C148.050766,56.163033 148.017288,56.333389 147.930725,56.758919 
	C146.172119,56.681328 144.466599,56.348572 142.073334,55.894012 
	C139.593216,55.846050 137.800827,55.919891 136.008423,55.993736 
z"/>
<path fill="#D1DAF0" opacity="1.000000" stroke="none" 
	d="
M84.087753,67.452591 
	C84.593597,66.989380 85.030052,66.937653 85.754105,66.722290 
	C88.850746,66.499695 91.679253,66.235664 94.457695,66.499290 
	C95.361389,66.585030 96.134277,68.049347 96.966995,68.883125 
	C96.051636,69.591560 95.203667,70.770554 94.207275,70.913261 
	C91.934616,71.238770 89.506516,71.427696 87.305313,70.937233 
	C86.044037,70.656204 85.103378,68.936234 84.087753,67.452591 
z"/>
<path fill="#6949CF" opacity="1.000000" stroke="none" 
	d="
M135.744110,56.235878 
	C137.800827,55.919891 139.593216,55.846050 141.694016,55.887592 
	C140.675781,60.727100 139.349136,65.451225 138.018509,70.550247 
	C135.397232,70.552834 132.779922,70.180519 130.057190,69.433174 
	C131.794418,64.864769 133.637100,60.671394 135.744110,56.235878 
z"/>
<path fill="#38446A" opacity="1.000000" stroke="none" 
	d="
M116.436356,85.017410 
	C115.993904,85.015686 115.979942,84.534653 115.984428,84.294083 
	C118.711899,84.171906 121.434875,84.290291 124.423264,84.671112 
	C122.085388,84.962082 119.482101,84.990608 116.436356,85.017410 
z"/>
<path fill="#38446A" opacity="1.000000" stroke="none" 
	d="
M115.410316,86.707825 
	C115.309402,87.206154 115.097122,87.378914 114.474319,87.563263 
	C114.283600,86.841248 114.503395,86.107635 115.083740,85.200684 
	C115.395836,85.478989 115.347397,85.930626 115.410316,86.707825 
z"/>
</svg>