<svg version="1.1" id="Layer_1" xmlns="http://www.w3.org/2000/svg" xmlns:xlink="http://www.w3.org/1999/xlink" x="0px" y="0px"
	 width="100%" viewBox="0 0 800 800" enable-background="new 0 0 800 800" xml:space="preserve">
<path fill="#000000" opacity="1.000000" stroke="none" 
	d="
M417.000000,801.000000 
	C278.000000,801.000000 139.500000,801.000000 1.000000,801.000000 
	C1.000000,534.333313 1.000000,267.666656 1.000000,1.000000 
	C267.666656,1.000000 534.333313,1.000000 801.000000,1.000000 
	C801.000000,267.666656 801.000000,534.333313 801.000000,801.000000 
	C673.166687,801.000000 545.333313,801.000000 417.000000,801.000000 
M19.492960,479.980225 
	C24.246519,503.298431 30.974569,526.042725 40.079399,548.020447 
	C48.933842,569.393799 59.408123,589.961304 71.772156,609.565735 
	C87.250061,634.107666 105.586182,656.368286 125.780365,677.076233 
	C133.866257,685.367798 142.992004,692.657837 151.767181,700.262146 
	C171.167587,717.074036 192.402145,731.272827 214.967834,743.409729 
	C244.794113,759.451721 276.079437,771.745728 309.111115,779.636536 
	C331.261627,784.928040 353.662689,788.911743 376.321320,789.744751 
	C406.180267,790.842407 436.055939,790.452393 465.735107,785.207825 
	C499.276947,779.280762 531.656067,769.818726 562.570312,755.630432 
	C587.388306,744.240051 611.325012,731.103516 632.723816,713.996399 
	C648.253906,701.580872 663.414978,688.643372 678.032349,675.170227 
	C686.282288,667.566040 693.175903,658.473328 700.545837,649.934937 
	C716.879333,631.011780 730.823669,610.383545 742.682007,588.440491 
	C755.581787,564.570190 766.269958,539.723511 774.047485,513.627747 
	C782.609070,484.901276 788.430908,455.616180 789.710022,425.764343 
	C790.789062,400.580994 790.759705,375.299103 787.226135,350.112122 
	C783.919922,326.545410 779.062805,303.379974 771.720825,280.815765 
	C759.091125,242.000381 741.278809,205.615036 716.738403,172.929062 
	C704.316895,156.384628 690.590576,140.751450 676.634460,125.454208 
	C668.739624,116.800743 659.242859,109.594864 650.363953,101.855972 
	C631.641785,85.537621 611.152588,71.680687 589.396057,59.837215 
	C558.925964,43.250332 526.934937,30.465452 493.057129,22.412647 
	C470.736908,17.107098 448.183838,13.133107 425.355743,12.221681 
	C391.476929,10.869046 357.625122,11.835537 324.211212,18.966518 
	C300.125946,24.106642 276.233704,30.135799 253.840530,40.335484 
	C233.017532,49.819977 212.613663,60.420845 192.792908,71.860298 
	C167.520172,86.446335 145.624039,105.685875 124.761620,125.951180 
	C116.455429,134.019638 109.165558,143.150299 101.580315,151.941757 
	C85.363884,170.736954 71.471992,191.200317 59.629158,212.959686 
	C42.960541,243.585648 29.721144,275.677368 22.342205,309.853638 
	C18.503559,327.632690 15.277317,345.628906 13.279036,363.693451 
	C11.676509,378.180328 12.100262,392.917755 12.080673,407.544617 
	C12.066225,418.334442 12.201149,429.186859 13.328958,439.899872 
	C14.713549,453.052094 17.201275,466.088196 19.492960,479.980225 
z"/>
<path fill="#323232" opacity="1.000000" stroke="none" 
	d="
M19.352543,479.577362 
	C17.201275,466.088196 14.713549,453.052094 13.328958,439.899872 
	C12.201149,429.186859 12.066225,418.334442 12.080673,407.544617 
	C12.100262,392.917755 11.676509,378.180328 13.279036,363.693451 
	C15.277317,345.628906 18.503559,327.632690 22.342205,309.853638 
	C29.721144,275.677368 42.960541,243.585648 59.629158,212.959686 
	C71.471992,191.200317 85.363884,170.736954 101.580315,151.941757 
	C109.165558,143.150299 116.455429,134.019638 124.761620,125.951180 
	C145.624039,105.685875 167.520172,86.446335 192.792908,71.860298 
	C212.613663,60.420845 233.017532,49.819977 253.840530,40.335484 
	C276.233704,30.135799 300.125946,24.106642 324.211212,18.966518 
	C357.625122,11.835537 391.476929,10.869046 425.355743,12.221681 
	C448.183838,13.133107 470.736908,17.107098 493.057129,22.412647 
	C526.934937,30.465452 558.925964,43.250332 589.396057,59.837215 
	C611.152588,71.680687 631.641785,85.537621 650.363953,101.855972 
	C659.242859,109.594864 668.739624,116.800743 676.634460,125.454208 
	C690.590576,140.751450 704.316895,156.384628 716.738403,172.929062 
	C741.278809,205.615036 759.091125,242.000381 771.720825,280.815765 
	C779.062805,303.379974 783.919922,326.545410 787.226135,350.112122 
	C790.759705,375.299103 790.789062,400.580994 789.710022,425.764343 
	C788.430908,455.616180 782.609070,484.901276 774.047485,513.627747 
	C766.269958,539.723511 755.581787,564.570190 742.682007,588.440491 
	C730.823669,610.383545 716.879333,631.011780 700.545837,649.934937 
	C693.175903,658.473328 686.282288,667.566040 678.032349,675.170227 
	C663.414978,688.643372 648.253906,701.580872 632.723816,713.996399 
	C611.325012,731.103516 587.388306,744.240051 562.570312,755.630432 
	C531.656067,769.818726 499.276947,779.280762 465.735107,785.207825 
	C436.055939,790.452393 406.180267,790.842407 376.321320,789.744751 
	C353.662689,788.911743 331.261627,784.928040 309.111115,779.636536 
	C276.079437,771.745728 244.794113,759.451721 214.967834,743.409729 
	C192.402145,731.272827 171.167587,717.074036 151.767181,700.262146 
	C142.992004,692.657837 133.866257,685.367798 125.780365,677.076233 
	C105.586182,656.368286 87.250061,634.107666 71.772156,609.565735 
	C59.408123,589.961304 48.933842,569.393799 40.079399,548.020447 
	C30.974569,526.042725 24.246519,503.298431 19.352543,479.577362 
M287.856171,334.806854 
	C286.868378,328.954956 282.606964,333.444000 280.010773,331.854279 
	C280.010773,378.804199 280.010773,425.253143 280.010773,471.742615 
	C282.633575,471.742615 285.056610,471.742615 288.062256,471.742615 
	C288.062256,453.194031 288.062256,434.909729 288.062256,416.292847 
	C290.537567,419.744934 292.345367,422.970062 294.807465,425.577209 
	C305.197479,436.579651 318.683777,438.111176 332.628052,436.715363 
	C347.577789,435.218903 359.416168,427.830780 365.523163,413.939880 
	C374.703247,393.059113 374.808228,371.715637 363.863495,351.393677 
	C355.610260,336.069336 341.737518,329.539825 324.421875,329.960388 
	C308.692932,330.342377 297.149414,337.341705 289.756592,351.223328 
	C289.433044,351.830902 288.938934,352.347656 287.857391,353.805725 
	C287.857391,347.002228 287.857391,341.377319 287.856171,334.806854 
M109.546776,425.183563 
	C94.517601,416.069611 91.020363,401.432068 90.146553,384.865112 
	C118.026291,384.865112 145.576477,384.865112 174.073364,384.865112 
	C173.321045,378.033478 173.141724,371.696289 171.855942,365.592163 
	C167.611359,345.441528 152.756287,331.556396 134.455063,330.078522 
	C111.604202,328.233246 94.826508,338.338837 86.776154,359.037231 
	C82.413383,370.254425 81.484909,381.878876 82.797882,393.850647 
	C85.958923,422.673218 103.868446,438.252777 132.816498,436.995789 
	C153.663422,436.090576 170.657379,420.206543 172.035690,400.230896 
	C169.597687,400.230896 167.169968,400.230896 164.831299,400.230896 
	C155.156036,427.455505 134.362106,437.028931 109.546776,425.183563 
M449.475647,385.012848 
	C475.622070,385.012848 501.768463,385.012848 528.985229,385.012848 
	C528.298767,378.398987 528.156616,372.081177 526.916870,365.986633 
	C522.755127,345.527374 507.837311,331.487793 489.329468,330.069336 
	C466.389709,328.311188 449.571991,338.332611 441.849731,359.227997 
	C439.407623,365.836151 438.133484,373.043915 437.430328,380.087646 
	C436.360779,390.801788 437.993500,401.395752 442.236359,411.351440 
	C453.799927,438.485077 492.733368,446.537018 514.293640,426.279694 
	C521.769592,419.255402 525.771423,410.403168 527.321289,400.306091 
	C524.395142,400.306091 521.973999,400.306091 519.661987,400.306091 
	C512.377808,423.541748 497.428925,433.144012 475.230164,429.100983 
	C456.764618,425.737854 444.187347,407.227783 445.519318,385.240662 
	C446.488953,385.165771 447.475281,385.089569 449.475647,385.012848 
M561.343506,342.670502 
	C570.943970,336.659302 581.424805,336.296753 592.159668,338.046844 
	C603.991089,339.975739 611.643372,347.581116 612.944763,358.440918 
	C613.115784,359.868286 613.195618,361.306580 613.341248,363.016205 
	C614.869080,363.016205 616.017029,363.058167 617.160522,363.004944 
	C618.420166,362.946411 619.675659,362.800446 620.886047,362.696594 
	C621.379456,346.976288 613.247314,335.070862 598.272827,332.048676 
	C589.498474,330.277832 580.087646,330.305176 571.140015,331.231750 
	C565.339355,331.832428 559.378357,334.760437 554.328613,337.967407 
	C542.052795,345.763611 543.328430,368.553375 554.578552,375.687561 
	C562.669739,380.818542 571.525757,382.973236 580.603333,385.134308 
	C589.432312,387.236176 598.588623,389.080872 606.661804,392.982513 
	C619.324402,399.102112 620.047119,416.079865 608.078064,423.497925 
	C602.667175,426.851410 595.799561,428.605133 589.379456,429.436279 
	C571.432739,431.759583 552.820068,424.288971 549.653076,401.198181 
	C547.227356,401.198181 544.791626,401.198181 542.371765,401.198181 
	C541.935364,410.059296 545.326660,418.473694 551.027588,424.982941 
	C564.824158,440.735809 596.476624,439.235840 610.325256,431.529114 
	C620.588257,425.817841 625.058716,417.157867 624.035767,405.460785 
	C623.106934,394.838928 617.279297,388.036224 607.753235,384.133148 
	C604.392334,382.756104 600.824524,381.838623 597.295959,380.924622 
	C586.692261,378.177856 575.739868,376.408630 565.518677,372.642792 
	C551.272278,367.393799 549.324768,353.006653 561.343506,342.670502 
M692.863892,380.822723 
	C690.105530,380.211304 687.321533,379.695953 684.593567,378.970306 
	C676.583374,376.839691 668.434998,375.076569 660.647522,372.307007 
	C653.934692,369.919586 649.762756,364.793488 649.572388,357.214661 
	C649.389282,349.924835 652.982056,344.569733 659.239746,341.621063 
	C663.799683,339.472321 668.951965,338.005951 673.967468,337.502411 
	C691.715698,335.720581 708.864441,341.878815 709.267151,362.107391 
	C709.271912,362.347870 709.661133,362.580688 709.835876,362.777679 
	C712.148071,362.777679 714.415527,362.777679 716.654358,362.777679 
	C718.018250,348.506958 709.486755,336.077728 695.611816,332.072723 
	C686.167725,329.346649 676.469360,328.885162 666.971863,331.097412 
	C661.280273,332.423187 655.521912,334.667786 650.576294,337.753876 
	C638.060425,345.563965 639.176819,368.518097 650.711060,375.787781 
	C658.662231,380.799072 667.352478,382.985901 676.274414,385.075226 
	C684.801636,387.072144 693.359741,389.221375 701.560852,392.237366 
	C708.254456,394.698883 711.998047,400.052979 712.195435,407.651978 
	C712.399170,415.492737 708.942505,421.019196 702.421509,424.898346 
	C679.185425,438.721039 651.404907,427.158051 645.524658,401.247894 
	C643.098328,401.247894 640.672058,401.247894 638.042358,401.247894 
	C638.306335,410.653198 641.035828,418.751740 647.519897,425.401367 
	C660.230103,438.435974 688.847900,441.346161 706.437988,431.460480 
	C716.703064,425.691528 721.078674,416.994446 720.025024,405.332977 
	C719.066040,394.718750 713.172180,387.961731 703.638428,384.085114 
	C700.425171,382.778534 697.000427,381.992188 692.863892,380.822723 
M248.977020,339.417236 
	C240.202087,351.068573 231.427155,362.719879 222.393463,374.714783 
	C213.043289,362.213715 203.507538,350.419647 195.126984,337.855072 
	C190.964813,331.614929 186.223068,331.419495 179.654587,332.384094 
	C192.241364,348.763306 204.477798,364.686615 216.929581,380.890137 
	C203.624817,398.733948 190.350830,416.536499 176.969925,434.482422 
	C183.539551,436.247864 187.611343,434.399750 191.407394,428.949646 
	C201.276154,414.780792 211.906921,401.142639 222.411942,387.053650 
	C232.960236,401.533386 243.244659,415.648804 253.526611,429.766052 
	C257.760010,435.578522 260.374268,436.403961 267.542572,434.121857 
	C254.274292,416.414215 241.023880,398.730438 227.669464,380.907837 
	C239.968216,364.712067 252.086182,348.754364 264.308807,332.658875 
	C257.066132,330.191956 252.520767,332.888397 248.977020,339.417236 
M393.466064,331.993958 
	C392.040344,332.080902 390.614624,332.167847 389.309845,332.247406 
	C389.309845,366.702026 389.309845,400.770782 389.309845,434.665558 
	C392.036682,434.665558 394.439514,434.665558 397.006134,434.665558 
	C397.006134,415.844696 396.956604,397.363525 397.027100,378.882782 
	C397.062073,369.712250 398.999939,361.140015 404.920410,353.710144 
	C413.101288,343.443573 423.697113,338.762665 436.671112,339.559265 
	C436.671112,336.775177 436.671112,334.378326 436.671112,330.341858 
	C428.523224,332.671692 420.887451,334.216064 413.774231,337.065125 
	C406.352509,340.037720 401.162842,346.055603 397.005859,354.527374 
	C397.005859,347.113068 396.998047,341.284393 397.010468,335.455780 
	C397.014343,333.630341 397.402069,331.558380 393.466064,331.993958 
z"/>
<path fill="#F9F9F9" opacity="1.000000" stroke="none" 
	d="
M287.856781,335.279602 
	C287.857391,341.377319 287.857391,347.002228 287.857391,353.805725 
	C288.938934,352.347656 289.433044,351.830902 289.756592,351.223328 
	C297.149414,337.341705 308.692932,330.342377 324.421875,329.960388 
	C341.737518,329.539825 355.610260,336.069336 363.863495,351.393677 
	C374.808228,371.715637 374.703247,393.059113 365.523163,413.939880 
	C359.416168,427.830780 347.577789,435.218903 332.628052,436.715363 
	C318.683777,438.111176 305.197479,436.579651 294.807465,425.577209 
	C292.345367,422.970062 290.537567,419.744934 288.062256,416.292847 
	C288.062256,434.909729 288.062256,453.194031 288.062256,471.742615 
	C285.056610,471.742615 282.633575,471.742615 280.010773,471.742615 
	C280.010773,425.253143 280.010773,378.804199 280.010773,331.854279 
	C282.606964,333.444000 286.868378,328.954956 287.856781,335.279602 
M299.884277,420.626068 
	C319.620972,437.714539 349.336548,431.348175 359.305756,407.421051 
	C366.285767,390.668243 365.710846,373.556152 357.924438,357.121033 
	C351.198151,342.923401 338.248962,336.092529 321.964447,337.190460 
	C307.620819,338.157532 296.046997,347.312042 291.268005,361.847565 
	C287.619720,372.944031 287.198547,384.327118 288.844238,395.866791 
	C290.140015,404.953064 292.984222,413.283661 299.884277,420.626068 
z"/>
<path fill="#FAFAFA" opacity="1.000000" stroke="none" 
	d="
M109.860130,425.391235 
	C134.362106,437.028931 155.156036,427.455505 164.831299,400.230896 
	C167.169968,400.230896 169.597687,400.230896 172.035690,400.230896 
	C170.657379,420.206543 153.663422,436.090576 132.816498,436.995789 
	C103.868446,438.252777 85.958923,422.673218 82.797882,393.850647 
	C81.484909,381.878876 82.413383,370.254425 86.776154,359.037231 
	C94.826508,338.338837 111.604202,328.233246 134.455063,330.078522 
	C152.756287,331.556396 167.611359,345.441528 171.855942,365.592163 
	C173.141724,371.696289 173.321045,378.033478 174.073364,384.865112 
	C145.576477,384.865112 118.026291,384.865112 90.146553,384.865112 
	C91.020363,401.432068 94.517601,416.069611 109.860130,425.391235 
M113.500046,377.989929 
	C130.729263,377.989929 147.958466,377.989929 165.200485,377.989929 
	C164.355591,352.448517 149.016525,336.445251 126.630920,337.180481 
	C106.707031,337.834839 90.274750,356.560394 91.107391,377.989929 
	C98.228165,377.989929 105.364136,377.989929 113.500046,377.989929 
z"/>
<path fill="#FAFAFA" opacity="1.000000" stroke="none" 
	d="
M448.968628,385.013123 
	C447.475281,385.089569 446.488953,385.165771 445.519318,385.240662 
	C444.187347,407.227783 456.764618,425.737854 475.230164,429.100983 
	C497.428925,433.144012 512.377808,423.541748 519.661987,400.306091 
	C521.973999,400.306091 524.395142,400.306091 527.321289,400.306091 
	C525.771423,410.403168 521.769592,419.255402 514.293640,426.279694 
	C492.733368,446.537018 453.799927,438.485077 442.236359,411.351440 
	C437.993500,401.395752 436.360779,390.801788 437.430328,380.087646 
	C438.133484,373.043915 439.407623,365.836151 441.849731,359.227997 
	C449.571991,338.332611 466.389709,328.311188 489.329468,330.069336 
	C507.837311,331.487793 522.755127,345.527374 526.916870,365.986633 
	C528.156616,372.081177 528.298767,378.398987 528.985229,385.012848 
	C501.768463,385.012848 475.622070,385.012848 448.968628,385.013123 
M508.430450,347.062134 
	C496.099426,336.393494 481.201508,334.061401 467.718658,340.689026 
	C454.490997,347.191254 445.257721,363.053711 446.176849,377.803223 
	C470.787781,377.803223 495.404327,377.803223 520.282776,377.803223 
	C519.855652,366.298523 516.711792,356.079895 508.430450,347.062134 
z"/>
<path fill="#F8F8F8" opacity="1.000000" stroke="none" 
	d="
M561.036743,342.879333 
	C549.324768,353.006653 551.272278,367.393799 565.518677,372.642792 
	C575.739868,376.408630 586.692261,378.177856 597.295959,380.924622 
	C600.824524,381.838623 604.392334,382.756104 607.753235,384.133148 
	C617.279297,388.036224 623.106934,394.838928 624.035767,405.460785 
	C625.058716,417.157867 620.588257,425.817841 610.325256,431.529114 
	C596.476624,439.235840 564.824158,440.735809 551.027588,424.982941 
	C545.326660,418.473694 541.935364,410.059296 542.371765,401.198181 
	C544.791626,401.198181 547.227356,401.198181 549.653076,401.198181 
	C552.820068,424.288971 571.432739,431.759583 589.379456,429.436279 
	C595.799561,428.605133 602.667175,426.851410 608.078064,423.497925 
	C620.047119,416.079865 619.324402,399.102112 606.661804,392.982513 
	C598.588623,389.080872 589.432312,387.236176 580.603333,385.134308 
	C571.525757,382.973236 562.669739,380.818542 554.578552,375.687561 
	C543.328430,368.553375 542.052795,345.763611 554.328613,337.967407 
	C559.378357,334.760437 565.339355,331.832428 571.140015,331.231750 
	C580.087646,330.305176 589.498474,330.277832 598.272827,332.048676 
	C613.247314,335.070862 621.379456,346.976288 620.886047,362.696594 
	C619.675659,362.800446 618.420166,362.946411 617.160522,363.004944 
	C616.017029,363.058167 614.869080,363.016205 613.341248,363.016205 
	C613.195618,361.306580 613.115784,359.868286 612.944763,358.440918 
	C611.643372,347.581116 603.991089,339.975739 592.159668,338.046844 
	C581.424805,336.296753 570.943970,336.659302 561.036743,342.879333 
z"/>
<path fill="#F8F8F8" opacity="1.000000" stroke="none" 
	d="
M693.268066,380.895386 
	C697.000427,381.992188 700.425171,382.778534 703.638428,384.085114 
	C713.172180,387.961731 719.066040,394.718750 720.025024,405.332977 
	C721.078674,416.994446 716.703064,425.691528 706.437988,431.460480 
	C688.847900,441.346161 660.230103,438.435974 647.519897,425.401367 
	C641.035828,418.751740 638.306335,410.653198 638.042358,401.247894 
	C640.672058,401.247894 643.098328,401.247894 645.527832,401.241455 
	C651.404907,427.158051 679.185425,438.721039 702.421509,424.898346 
	C708.942505,421.019196 712.399170,415.492737 712.195435,407.651978 
	C711.998047,400.052979 708.254456,394.698883 701.560852,392.237366 
	C693.359741,389.221375 684.801636,387.072144 676.274414,385.075226 
	C667.352478,382.985901 658.662231,380.799072 650.711060,375.787781 
	C639.176819,368.518097 638.060425,345.563965 650.576294,337.753876 
	C655.521912,334.667786 661.280273,332.423187 666.971863,331.097412 
	C676.469360,328.885162 686.167725,329.346649 695.611816,332.072723 
	C709.486755,336.077728 718.018250,348.506958 716.654358,362.777679 
	C714.415527,362.777679 712.148071,362.777679 709.835876,362.777679 
	C709.661133,362.580688 709.271912,362.347870 709.267151,362.107391 
	C708.864441,341.878815 691.715698,335.720581 673.967468,337.502411 
	C668.951965,338.005951 663.799683,339.472321 659.239746,341.621063 
	C652.982056,344.569733 649.389282,349.924835 649.572388,357.214661 
	C649.762756,364.793488 653.934692,369.919586 660.647522,372.307007 
	C668.434998,375.076569 676.583374,376.839691 684.593567,378.970306 
	C687.321533,379.695953 690.105530,380.211304 693.268066,380.895386 
z"/>
<path fill="#F9F9F9" opacity="1.000000" stroke="none" 
	d="
M249.193481,339.131805 
	C252.520767,332.888397 257.066132,330.191956 264.308807,332.658875 
	C252.086182,348.754364 239.968216,364.712067 227.669464,380.907837 
	C241.023880,398.730438 254.274292,416.414215 267.542572,434.121857 
	C260.374268,436.403961 257.760010,435.578522 253.526611,429.766052 
	C243.244659,415.648804 232.960236,401.533386 222.411942,387.053650 
	C211.906921,401.142639 201.276154,414.780792 191.407394,428.949646 
	C187.611343,434.399750 183.539551,436.247864 176.969925,434.482422 
	C190.350830,416.536499 203.624817,398.733948 216.929581,380.890137 
	C204.477798,364.686615 192.241364,348.763306 179.654587,332.384094 
	C186.223068,331.419495 190.964813,331.614929 195.126984,337.855072 
	C203.507538,350.419647 213.043289,362.213715 222.393463,374.714783 
	C231.427155,362.719879 240.202087,351.068573 249.193481,339.131805 
z"/>
<path fill="#FCFCFC" opacity="1.000000" stroke="none" 
	d="
M393.940308,331.994446 
	C397.402069,331.558380 397.014343,333.630341 397.010468,335.455780 
	C396.998047,341.284393 397.005859,347.113068 397.005859,354.527374 
	C401.162842,346.055603 406.352509,340.037720 413.774231,337.065125 
	C420.887451,334.216064 428.523224,332.671692 436.671112,330.341858 
	C436.671112,334.378326 436.671112,336.775177 436.671112,339.559265 
	C423.697113,338.762665 413.101288,343.443573 404.920410,353.710144 
	C398.999939,361.140015 397.062073,369.712250 397.027100,378.882782 
	C396.956604,397.363525 397.006134,415.844696 397.006134,434.665558 
	C394.439514,434.665558 392.036682,434.665558 389.309845,434.665558 
	C389.309845,400.770782 389.309845,366.702026 389.309845,332.247406 
	C390.614624,332.167847 392.040344,332.080902 393.940308,331.994446 
z"/>
<path fill="#333333" opacity="1.000000" stroke="none" 
	d="
M299.620789,420.377502 
	C292.984222,413.283661 290.140015,404.953064 288.844238,395.866791 
	C287.198547,384.327118 287.619720,372.944031 291.268005,361.847565 
	C296.046997,347.312042 307.620819,338.157532 321.964447,337.190460 
	C338.248962,336.092529 351.198151,342.923401 357.924438,357.121033 
	C365.710846,373.556152 366.285767,390.668243 359.305756,407.421051 
	C349.336548,431.348175 319.620972,437.714539 299.620789,420.377502 
z"/>
<path fill="#333333" opacity="1.000000" stroke="none" 
	d="
M113.000076,377.989929 
	C105.364136,377.989929 98.228165,377.989929 91.107391,377.989929 
	C90.274750,356.560394 106.707031,337.834839 126.630920,337.180481 
	C149.016525,336.445251 164.355591,352.448517 165.200485,377.989929 
	C147.958466,377.989929 130.729263,377.989929 113.000076,377.989929 
z"/>
<path fill="#333333" opacity="1.000000" stroke="none" 
	d="
M508.681702,347.316895 
	C516.711792,356.079895 519.855652,366.298523 520.282776,377.803223 
	C495.404327,377.803223 470.787781,377.803223 446.176849,377.803223 
	C445.257721,363.053711 454.490997,347.191254 467.718658,340.689026 
	C481.201508,334.061401 496.099426,336.393494 508.681702,347.316895 
z"/>
</svg>